<?xml version="1.0" encoding="UTF-8" standalone="no"?>
<!DOCTYPE svg PUBLIC "-//W3C//DTD SVG 1.1//EN"
 "http://www.w3.org/Graphics/SVG/1.1/DTD/svg11.dtd">
<!-- Generated by graphviz version 2.40.1 (20161225.0304)
 -->
<!-- Title: jobly Pages: 1 -->
<svg width="699pt" height="523pt"
 viewBox="0.00 0.00 699.00 522.50" xmlns="http://www.w3.org/2000/svg" xmlns:xlink="http://www.w3.org/1999/xlink">
<g id="graph0" class="graph" transform="scale(1 1) rotate(0) translate(4 518.5)">
<title>jobly</title>
<polygon fill="#ffffff" stroke="transparent" points="-4,4 -4,-518.5 695,-518.5 695,4 -4,4"/>
<g id="clust3" class="cluster">
<title>cluster_misc</title>
<polygon fill="#f7f7f7" stroke="#f7f7f7" points="588,-315.5 588,-451.5 683,-451.5 683,-315.5 588,-315.5"/>
<text text-anchor="start" x="596" y="-439.7" font-family="Arial" font-weight="bold" font-size="11.00" fill="#000000"> Miscellaneous</text>
<text text-anchor="start" x="600" y="-428.7" font-family="Arial" font-weight="bold" font-size="11.00" fill="#000000">Components </text>
</g>
<!-- App -->
<g id="node1" class="node">
<title>App</title>
<polygon fill="none" stroke="#000000" points="102,-514.5 1,-514.5 1,-450.5 102,-450.5 102,-514.5"/>
<text text-anchor="start" x="39.5" y="-499.9" font-family="Arial" font-weight="bold" font-size="12.00" fill="#000000">App</text>
<text text-anchor="start" x="29" y="-486.3" font-family="Arial" font-size="9.00" fill="#000000">infoLoaded</text>
<text text-anchor="start" x="27.5" y="-477.3" font-family="Arial" font-size="9.00" fill="#000000">currentUser</text>
<text text-anchor="start" x="40" y="-468.3" font-family="Arial" font-size="9.00" fill="#000000">token</text>
<text text-anchor="start" x="23.5" y="-459.3" font-family="Arial" font-size="9.00" fill="#000000">applicationIds</text>
</g>
<!-- UserContext -->
<g id="node2" class="node">
<title>UserContext</title>
<polygon fill="none" stroke="#000000" points="102,-402.5 1,-402.5 1,-338.5 102,-338.5 102,-402.5"/>
<text text-anchor="start" x="15.5" y="-387.9" font-family="Arial" font-weight="bold" font-size="12.00" fill="#000000">UserContext</text>
<text text-anchor="start" x="31.5" y="-374.3" font-family="Arial" font-weight="bold" font-size="9.00" fill="#000000">Provider:</text>
<text text-anchor="start" x="27.5" y="-365.3" font-family="Arial" font-size="9.00" fill="#000000">currentUser</text>
<text text-anchor="start" x="16.5" y="-356.3" font-family="Arial" font-size="9.00" fill="#000000">hasAppliedToJob</text>
<text text-anchor="start" x="28" y="-347.3" font-family="Arial" font-size="9.00" fill="#000000">applyToJob</text>
</g>
<!-- App&#45;&gt;UserContext -->
<g id="edge1" class="edge">
<title>App&#45;&gt;UserContext</title>
<path fill="none" stroke="#7f7f7f" d="M51.5,-450.4006C51.5,-437.7468 51.5,-423.0888 51.5,-409.8091"/>
<polygon fill="#7f7f7f" stroke="#7f7f7f" points="53.9501,-409.5947 51.5,-402.5947 49.0501,-409.5947 53.9501,-409.5947"/>
<text text-anchor="start" x="9.5" y="-434.5" font-family="Arial" font-style="italic" font-size="10.00" fill="#333333">logout() &#160;&#160;&#160;&#160;</text>
<text text-anchor="start" x="12.5" y="-424.5" font-family="Arial" font-style="italic" font-size="10.00" fill="#333333">login() &#160;&#160;&#160;&#160;</text>
<text text-anchor="start" x="7" y="-414.5" font-family="Arial" font-style="italic" font-size="10.00" fill="#333333">signup() &#160;&#160;&#160;&#160;&#160;</text>
</g>
<!-- Routes -->
<g id="node3" class="node">
<title>Routes</title>
<polygon fill="none" stroke="#000000" points="103,-301 0,-301 0,-250 103,-250 103,-301"/>
<text text-anchor="start" x="31" y="-286.4" font-family="Arial" font-weight="bold" font-size="12.00" fill="#000000">Routes</text>
<text text-anchor="start" x="6" y="-267.8" font-family="Arial" font-size="9.00" fill="#000000">Uses </text>
<text text-anchor="start" x="30" y="-267.8" font-family="Arial" font-weight="bold" font-size="9.00" fill="#000000">&lt;PrivateRoute&gt;</text>
<text text-anchor="start" x="16.5" y="-258.8" font-family="Arial" font-size="9.00" fill="#000000">for </text>
<text text-anchor="start" x="30.5" y="-258.8" font-family="Arial" font-size="9.00" fill="#b22222">private&#45;routes</text>
</g>
<!-- UserContext&#45;&gt;Routes -->
<g id="edge4" class="edge">
<title>UserContext&#45;&gt;Routes</title>
<path fill="none" stroke="#7f7f7f" d="M51.5,-338.4698C51.5,-328.87 51.5,-318.324 51.5,-308.6534"/>
<polygon fill="#7f7f7f" stroke="#7f7f7f" points="53.9501,-308.4591 51.5,-301.4592 49.0501,-308.4592 53.9501,-308.4591"/>
<text text-anchor="start" x="12" y="-322.75" font-family="Arial" font-style="italic" font-size="10.00" fill="#333333">login() &#160;&#160;&#160;&#160;&#160;&#160;&#160;&#160;</text>
<text text-anchor="start" x="6.5" y="-312.75" font-family="Arial" font-style="italic" font-size="10.00" fill="#333333">signup() &#160;&#160;&#160;&#160;&#160;&#160;&#160;&#160;&#160;</text>
</g>
<!-- Navigation -->
<g id="node4" class="node">
<title>Navigation</title>
<polygon fill="none" stroke="#000000" points="296,-511.5 195,-511.5 195,-475.5 296,-475.5 296,-511.5"/>
<text text-anchor="start" x="214.5" y="-491.4" font-family="Arial" font-weight="bold" font-size="12.00" fill="#000000">Navigation</text>
</g>
<!-- UserContext&#45;&gt;Navigation -->
<g id="edge2" class="edge">
<title>UserContext&#45;&gt;Navigation</title>
<path fill="none" stroke="#7f7f7f" d="M84.7174,-402.7618C95.7716,-412.6303 108.4703,-423.0889 121,-431.5 144.4564,-447.2461 172.4774,-461.5497 195.9912,-472.4403"/>
<polygon fill="#7f7f7f" stroke="#7f7f7f" points="195.1118,-474.7322 202.4962,-475.4198 197.1524,-470.2773 195.1118,-474.7322"/>
<text text-anchor="start" x="132" y="-465.5" font-family="Arial" font-style="italic" font-size="10.00" fill="#333333">logout()</text>
</g>
<!-- BlankFiller -->
<g id="node5" class="node">
<title>BlankFiller</title>
<polygon fill="none" stroke="#ffffff" points="296,-457.5 195,-457.5 195,-421.5 296,-421.5 296,-457.5"/>
</g>
<!-- UserContext&#45;&gt;BlankFiller -->
<g id="edge3" class="edge">
<title>UserContext&#45;&gt;BlankFiller</title>
<path fill="none" stroke="#ffffff" d="M102.3422,-401.0967C108.5103,-404.187 114.8176,-407.0742 121,-409.5 142.2905,-417.8537 166.5731,-424.3379 188.0055,-429.1061"/>
<polygon fill="#ffffff" stroke="#ffffff" points="187.496,-431.5025 194.8565,-430.5941 188.536,-426.7141 187.496,-431.5025"/>
</g>
<!-- Homepage -->
<g id="node6" class="node">
<title>Homepage</title>
<polygon fill="none" stroke="#000000" points="296,-403.5 195,-403.5 195,-367.5 296,-367.5 296,-403.5"/>
<text text-anchor="start" x="214.5" y="-383.4" font-family="Arial" font-weight="bold" font-size="12.00" fill="#000000">Homepage</text>
</g>
<!-- Routes&#45;&gt;Homepage -->
<g id="edge5" class="edge">
<title>Routes&#45;&gt;Homepage</title>
<path fill="none" stroke="#7f7f7f" d="M81.94,-301.048C93.7298,-310.3084 107.598,-320.4587 121,-328.5 143.7274,-342.1367 170.2734,-354.707 193.001,-364.5532"/>
<polygon fill="#7f7f7f" stroke="#7f7f7f" points="192.2134,-366.8812 199.6124,-367.3878 194.1442,-362.3776 192.2134,-366.8812"/>
<text text-anchor="start" x="147.5" y="-368.5" font-family="Arial" font-weight="bold" font-size="10.00" fill="#000080">/</text>
<text text-anchor="start" x="135.5" y="-358.5" font-family="Arial" font-weight="bold" font-size="10.00" fill="#000080">(root)</text>
</g>
<!-- CompanyList -->
<g id="node7" class="node">
<title>CompanyList</title>
<polygon fill="none" stroke="#000000" points="296,-349 195,-349 195,-312 296,-312 296,-349"/>
<text text-anchor="start" x="207" y="-334.4" font-family="Arial" font-weight="bold" font-size="12.00" fill="#000000">CompanyList</text>
<text text-anchor="start" x="223.5" y="-320.8" font-family="Arial" font-size="9.00" fill="#000000">companies</text>
</g>
<!-- Routes&#45;&gt;CompanyList -->
<g id="edge6" class="edge">
<title>Routes&#45;&gt;CompanyList</title>
<path fill="none" stroke="#7f7f7f" d="M103.3308,-293.9596C109.2654,-295.906 115.2479,-297.7944 121,-299.5 142.6808,-305.929 166.7458,-312.1342 187.8943,-317.2821"/>
<polygon fill="#7f7f7f" stroke="#7f7f7f" points="187.5672,-319.7235 194.9469,-318.9862 188.7181,-314.9606 187.5672,-319.7235"/>
<text text-anchor="start" x="121" y="-317.5" font-family="Arial" font-weight="bold" font-size="10.00" fill="#b22222">/companies</text>
</g>
<!-- CompanyDetail -->
<g id="node10" class="node">
<title>CompanyDetail</title>
<polygon fill="none" stroke="#000000" points="296,-294 195,-294 195,-257 296,-257 296,-294"/>
<text text-anchor="start" x="201.5" y="-279.4" font-family="Arial" font-weight="bold" font-size="12.00" fill="#000000">CompanyDetail</text>
<text text-anchor="start" x="227" y="-265.8" font-family="Arial" font-size="9.00" fill="#000000">company</text>
</g>
<!-- Routes&#45;&gt;CompanyDetail -->
<g id="edge9" class="edge">
<title>Routes&#45;&gt;CompanyDetail</title>
<path fill="none" stroke="#7f7f7f" d="M103.2336,-275.5C129.3022,-275.5 160.9935,-275.5 187.8427,-275.5"/>
<polygon fill="#7f7f7f" stroke="#7f7f7f" points="187.9172,-277.9501 194.9171,-275.5 187.9171,-273.0501 187.9172,-277.9501"/>
<text text-anchor="start" x="121" y="-288.5" font-family="Arial" font-weight="bold" font-size="10.00" fill="#b22222">/companies</text>
<text text-anchor="start" x="129.5" y="-278.5" font-family="Arial" font-weight="bold" font-size="10.00" fill="#b22222">/:handle</text>
</g>
<!-- JobList -->
<g id="node13" class="node">
<title>JobList</title>
<polygon fill="none" stroke="#000000" points="296,-239 195,-239 195,-202 296,-202 296,-239"/>
<text text-anchor="start" x="224" y="-224.4" font-family="Arial" font-weight="bold" font-size="12.00" fill="#000000">JobList</text>
<text text-anchor="start" x="237" y="-210.8" font-family="Arial" font-size="9.00" fill="#000000">jobs</text>
</g>
<!-- Routes&#45;&gt;JobList -->
<g id="edge12" class="edge">
<title>Routes&#45;&gt;JobList</title>
<path fill="none" stroke="#7f7f7f" d="M103.2336,-260.8333C129.3022,-253.4427 160.9935,-244.458 187.8427,-236.8461"/>
<polygon fill="#7f7f7f" stroke="#7f7f7f" points="188.8508,-239.107 194.9171,-234.8405 187.5143,-234.3928 188.8508,-239.107"/>
<text text-anchor="start" x="137" y="-259.5" font-family="Arial" font-weight="bold" font-size="10.00" fill="#b22222">/jobs</text>
</g>
<!-- LoginForm -->
<g id="node17" class="node">
<title>LoginForm</title>
<polygon fill="none" stroke="#000000" points="296,-183.5 195,-183.5 195,-137.5 296,-137.5 296,-183.5"/>
<text text-anchor="start" x="214" y="-168.9" font-family="Arial" font-weight="bold" font-size="12.00" fill="#000000">LoginForm</text>
<text text-anchor="start" x="226.5" y="-155.3" font-family="Arial" font-size="9.00" fill="#000000">formData</text>
<text text-anchor="start" x="224" y="-146.3" font-family="Arial" font-size="9.00" fill="#000000">formErrors</text>
</g>
<!-- Routes&#45;&gt;LoginForm -->
<g id="edge16" class="edge">
<title>Routes&#45;&gt;LoginForm</title>
<path fill="none" stroke="#7f7f7f" d="M78.5973,-249.9996C90.9454,-239.1601 106.1095,-226.8854 121,-217.5 141.9592,-204.2895 166.4872,-192.3883 188.2045,-182.9198"/>
<polygon fill="#7f7f7f" stroke="#7f7f7f" points="189.386,-185.0786 194.847,-180.0606 187.4487,-180.5778 189.386,-185.0786"/>
<text text-anchor="start" x="135.5" y="-230.5" font-family="Arial" font-weight="bold" font-size="10.00" fill="#000080">/login</text>
<text text-anchor="start" x="135" y="-220.5" font-family="Arial" font-style="italic" font-size="10.00" fill="#333333">login()</text>
</g>
<!-- SignupForm -->
<g id="node18" class="node">
<title>SignupForm</title>
<polygon fill="none" stroke="#000000" points="296,-119.5 195,-119.5 195,-73.5 296,-73.5 296,-119.5"/>
<text text-anchor="start" x="210" y="-104.9" font-family="Arial" font-weight="bold" font-size="12.00" fill="#000000">SignupForm</text>
<text text-anchor="start" x="226.5" y="-91.3" font-family="Arial" font-size="9.00" fill="#000000">formData</text>
<text text-anchor="start" x="224" y="-82.3" font-family="Arial" font-size="9.00" fill="#000000">formErrors</text>
</g>
<!-- Routes&#45;&gt;SignupForm -->
<g id="edge17" class="edge">
<title>Routes&#45;&gt;SignupForm</title>
<path fill="none" stroke="#7f7f7f" d="M63.0728,-249.7954C74.9151,-225.7041 95.2125,-189.8479 121,-165.5 140.4628,-147.1237 165.7441,-131.9453 188.4359,-120.5483"/>
<polygon fill="#7f7f7f" stroke="#7f7f7f" points="189.5625,-122.7246 194.7605,-117.4346 187.3981,-118.3285 189.5625,-122.7246"/>
<text text-anchor="start" x="131" y="-178.5" font-family="Arial" font-weight="bold" font-size="10.00" fill="#000080">/signup</text>
<text text-anchor="start" x="130.5" y="-168.5" font-family="Arial" font-style="italic" font-size="10.00" fill="#333333">signup()</text>
</g>
<!-- ProfileForm -->
<g id="node19" class="node">
<title>ProfileForm</title>
<polygon fill="none" stroke="#000000" points="296,-55 195,-55 195,0 296,0 296,-55"/>
<text text-anchor="start" x="211.5" y="-40.4" font-family="Arial" font-weight="bold" font-size="12.00" fill="#000000">ProfileForm</text>
<text text-anchor="start" x="226.5" y="-26.8" font-family="Arial" font-size="9.00" fill="#000000">formData</text>
<text text-anchor="start" x="224" y="-17.8" font-family="Arial" font-size="9.00" fill="#000000">formErrors</text>
<text text-anchor="start" x="215" y="-8.8" font-family="Arial" font-size="9.00" fill="#000000">saveConfirmed</text>
</g>
<!-- Routes&#45;&gt;ProfileForm -->
<g id="edge18" class="edge">
<title>Routes&#45;&gt;ProfileForm</title>
<path fill="none" stroke="#7f7f7f" d="M57.7049,-249.8489C66.9456,-215.7779 86.9867,-155.0675 121,-113.5 139.4785,-90.9175 165.3597,-71.7414 188.7411,-57.2671"/>
<polygon fill="#7f7f7f" stroke="#7f7f7f" points="190.2316,-59.2284 194.9424,-53.5003 187.6877,-55.0404 190.2316,-59.2284"/>
<text text-anchor="start" x="132" y="-117.5" font-family="Arial" font-weight="bold" font-size="10.00" fill="#b22222">/profile</text>
</g>
<!-- SearchForm -->
<g id="node8" class="node">
<title>SearchForm</title>
<polygon fill="none" stroke="#000000" points="485,-414 384,-414 384,-377 485,-377 485,-414"/>
<text text-anchor="start" x="399" y="-399.4" font-family="Arial" font-weight="bold" font-size="12.00" fill="#000000">SearchForm</text>
<text text-anchor="start" x="410" y="-385.8" font-family="Arial" font-size="9.00" fill="#000000">searchTerm</text>
</g>
<!-- CompanyList&#45;&gt;SearchForm -->
<g id="edge7" class="edge">
<title>CompanyList&#45;&gt;SearchForm</title>
<path fill="none" stroke="#7f7f7f" d="M296.1485,-347.9188C321.0414,-356.4798 351.1503,-366.8348 376.9153,-375.6957"/>
<polygon fill="#7f7f7f" stroke="#7f7f7f" points="376.2954,-378.0733 383.7117,-378.0331 377.889,-373.4397 376.2954,-378.0733"/>
<text text-anchor="start" x="314" y="-374.5" font-family="Arial" font-style="italic" font-size="10.00" fill="#333333">searchFor()</text>
</g>
<!-- CompanyCard1 -->
<g id="node9" class="node">
<title>CompanyCard1</title>
<polygon fill="none" stroke="#000000" points="485,-358.5 384,-358.5 384,-310.5 485,-310.5 485,-358.5"/>
<text text-anchor="start" x="393" y="-343.9" font-family="Arial" font-weight="bold" font-size="12.00" fill="#000000">CompanyCard</text>
<text text-anchor="start" x="393" y="-331.9" font-family="Arial" font-weight="bold" font-size="12.00" fill="#000000">CompanyCard</text>
<text text-anchor="start" x="429" y="-319.9" font-family="Arial" font-weight="bold" font-size="12.00" fill="#000000">...</text>
</g>
<!-- CompanyList&#45;&gt;CompanyCard1 -->
<g id="edge8" class="edge">
<title>CompanyList&#45;&gt;CompanyCard1</title>
<path fill="none" stroke="#7f7f7f" d="M296.1485,-331.5719C320.9354,-332.0965 350.8942,-332.7306 376.5862,-333.2743"/>
<polygon fill="#7f7f7f" stroke="#7f7f7f" points="376.6614,-335.7264 383.7117,-333.4251 376.7651,-330.8275 376.6614,-335.7264"/>
<text text-anchor="start" x="315.5" y="-336.5" font-family="Arial" font-style="italic" font-size="10.00" fill="#333333">...company</text>
</g>
<!-- PrivateRoute -->
<g id="node21" class="node">
<title>PrivateRoute</title>
<polygon fill="none" stroke="#000000" points="675,-413.5 596,-413.5 596,-377.5 675,-377.5 675,-413.5"/>
<text text-anchor="start" x="607.5" y="-394.3" font-family="Arial" font-weight="bold" font-size="9.00" fill="#000000">PrivateRoute</text>
</g>
<!-- SearchForm&#45;&gt;PrivateRoute -->
<!-- JobCardList1 -->
<g id="node11" class="node">
<title>JobCardList1</title>
<polygon fill="none" stroke="#000000" points="485,-292.5 384,-292.5 384,-256.5 485,-256.5 485,-292.5"/>
<text text-anchor="start" x="399" y="-272.4" font-family="Arial" font-weight="bold" font-size="12.00" fill="#000000">JobCardList</text>
</g>
<!-- CompanyDetail&#45;&gt;JobCardList1 -->
<g id="edge10" class="edge">
<title>CompanyDetail&#45;&gt;JobCardList1</title>
<path fill="none" stroke="#7f7f7f" d="M296.1485,-275.232C320.9354,-275.1009 350.8942,-274.9424 376.5862,-274.8064"/>
<polygon fill="#7f7f7f" stroke="#7f7f7f" points="376.7248,-277.2558 383.7117,-274.7687 376.6988,-272.3559 376.7248,-277.2558"/>
<text text-anchor="start" x="330.5" y="-279.5" font-family="Arial" font-style="italic" font-size="10.00" fill="#333333">jobs</text>
</g>
<!-- JobCard1 -->
<g id="node12" class="node">
<title>JobCard1</title>
<polygon fill="none" stroke="#000000" points="686,-301.5 585,-301.5 585,-253.5 686,-253.5 686,-301.5"/>
<text text-anchor="start" x="611" y="-286.9" font-family="Arial" font-weight="bold" font-size="12.00" fill="#000000">JobCard</text>
<text text-anchor="start" x="611" y="-274.9" font-family="Arial" font-weight="bold" font-size="12.00" fill="#000000">JobCard</text>
<text text-anchor="start" x="630" y="-262.9" font-family="Arial" font-weight="bold" font-size="12.00" fill="#000000">...</text>
</g>
<!-- JobCardList1&#45;&gt;JobCard1 -->
<g id="edge11" class="edge">
<title>JobCardList1&#45;&gt;JobCard1</title>
<path fill="none" stroke="#7f7f7f" d="M485.2208,-275.257C513.3104,-275.6763 548.341,-276.1991 577.5129,-276.6345"/>
<polygon fill="#7f7f7f" stroke="#7f7f7f" points="577.7596,-279.0884 584.7954,-276.7432 577.8328,-274.1889 577.7596,-279.0884"/>
<text text-anchor="start" x="524" y="-280.5" font-family="Arial" font-style="italic" font-size="10.00" fill="#333333">...job</text>
</g>
<!-- JobCardList2 -->
<g id="node14" class="node">
<title>JobCardList2</title>
<polygon fill="none" stroke="#000000" points="485,-238.5 384,-238.5 384,-202.5 485,-202.5 485,-238.5"/>
<text text-anchor="start" x="399" y="-218.4" font-family="Arial" font-weight="bold" font-size="12.00" fill="#000000">JobCardList</text>
</g>
<!-- JobList&#45;&gt;JobCardList2 -->
<g id="edge13" class="edge">
<title>JobList&#45;&gt;JobCardList2</title>
<path fill="none" stroke="#7f7f7f" d="M296.1485,-220.5C320.9354,-220.5 350.8942,-220.5 376.5862,-220.5"/>
<polygon fill="#7f7f7f" stroke="#7f7f7f" points="376.7117,-222.9501 383.7117,-220.5 376.7116,-218.0501 376.7117,-222.9501"/>
<text text-anchor="start" x="330.5" y="-224.5" font-family="Arial" font-style="italic" font-size="10.00" fill="#333333">jobs</text>
</g>
<!-- SearchForm2 -->
<g id="node15" class="node">
<title>SearchForm2</title>
<polygon fill="none" stroke="#000000" points="485,-184 384,-184 384,-147 485,-147 485,-184"/>
<text text-anchor="start" x="399" y="-169.4" font-family="Arial" font-weight="bold" font-size="12.00" fill="#000000">SearchForm</text>
<text text-anchor="start" x="410" y="-155.8" font-family="Arial" font-size="9.00" fill="#000000">searchTerm</text>
</g>
<!-- JobList&#45;&gt;SearchForm2 -->
<g id="edge14" class="edge">
<title>JobList&#45;&gt;SearchForm2</title>
<path fill="none" stroke="#7f7f7f" d="M296.1485,-205.761C321.0414,-198.5171 351.1503,-189.7552 376.9153,-182.2574"/>
<polygon fill="#7f7f7f" stroke="#7f7f7f" points="377.6751,-184.5881 383.7117,-180.2797 376.3059,-179.8832 377.6751,-184.5881"/>
<text text-anchor="start" x="314" y="-204.5" font-family="Arial" font-style="italic" font-size="10.00" fill="#333333">searchFor()</text>
</g>
<!-- JobCard3 -->
<g id="node16" class="node">
<title>JobCard3</title>
<polygon fill="none" stroke="#000000" points="686,-235.5 585,-235.5 585,-187.5 686,-187.5 686,-235.5"/>
<text text-anchor="start" x="611" y="-220.9" font-family="Arial" font-weight="bold" font-size="12.00" fill="#000000">JobCard</text>
<text text-anchor="start" x="611" y="-208.9" font-family="Arial" font-weight="bold" font-size="12.00" fill="#000000">JobCard</text>
<text text-anchor="start" x="630" y="-196.9" font-family="Arial" font-weight="bold" font-size="12.00" fill="#000000">...</text>
</g>
<!-- JobCardList2&#45;&gt;JobCard3 -->
<g id="edge15" class="edge">
<title>JobCardList2&#45;&gt;JobCard3</title>
<path fill="none" stroke="#7f7f7f" d="M485.2208,-218.2289C513.3104,-216.9712 548.341,-215.4026 577.5129,-214.0964"/>
<polygon fill="#7f7f7f" stroke="#7f7f7f" points="577.9121,-216.5311 584.7954,-213.7704 577.6928,-211.636 577.9121,-216.5311"/>
<text text-anchor="start" x="524" y="-221.5" font-family="Arial" font-style="italic" font-size="10.00" fill="#333333">...job</text>
</g>
<!-- Alert -->
<g id="node20" class="node">
<title>Alert</title>
<polygon fill="none" stroke="#000000" points="485,-114.5 384,-114.5 384,-78.5 485,-78.5 485,-114.5"/>
<text text-anchor="start" x="420.5" y="-94.4" font-family="Arial" font-weight="bold" font-size="12.00" fill="#000000">Alert</text>
</g>
<!-- LoginForm&#45;&gt;Alert -->
<g id="edge19" class="edge">
<title>LoginForm&#45;&gt;Alert</title>
<path fill="none" stroke="#7f7f7f" d="M296.1485,-143.3492C321.0414,-134.9199 351.1503,-124.7242 376.9153,-115.9996"/>
<polygon fill="#7f7f7f" stroke="#7f7f7f" points="377.8673,-118.2639 383.7117,-113.6982 376.2956,-113.6228 377.8673,-118.2639"/>
<text text-anchor="start" x="330.5" y="-149.5" font-family="Arial" font-style="italic" font-size="10.00" fill="#333333">type</text>
<text text-anchor="start" x="317" y="-139.5" font-family="Arial" font-style="italic" font-size="10.00" fill="#333333">messages</text>
</g>
<!-- SignupForm&#45;&gt;Alert -->
<g id="edge20" class="edge">
<title>SignupForm&#45;&gt;Alert</title>
<path fill="none" stroke="#7f7f7f" d="M296.1485,-96.5C320.9354,-96.5 350.8942,-96.5 376.5862,-96.5"/>
<polygon fill="#7f7f7f" stroke="#7f7f7f" points="376.7117,-98.9501 383.7117,-96.5 376.7116,-94.0501 376.7117,-98.9501"/>
<text text-anchor="start" x="330.5" y="-109.5" font-family="Arial" font-style="italic" font-size="10.00" fill="#333333">type</text>
<text text-anchor="start" x="317" y="-99.5" font-family="Arial" font-style="italic" font-size="10.00" fill="#333333">messages</text>
</g>
<!-- ProfileForm&#45;&gt;Alert -->
<g id="edge21" class="edge">
<title>ProfileForm&#45;&gt;Alert</title>
<path fill="none" stroke="#7f7f7f" d="M296.1485,-45.9907C321.4429,-55.2252 352.1229,-66.4258 378.1586,-75.9309"/>
<polygon fill="#7f7f7f" stroke="#7f7f7f" points="377.6042,-78.3366 385.0199,-78.4359 379.2847,-73.7338 377.6042,-78.3366"/>
<text text-anchor="start" x="330.5" y="-83.5" font-family="Arial" font-style="italic" font-size="10.00" fill="#333333">type</text>
<text text-anchor="start" x="317" y="-73.5" font-family="Arial" font-style="italic" font-size="10.00" fill="#333333">messages</text>
</g>
<!-- Component -->
<g id="node23" class="node">
<title>Component</title>
<polygon fill="none" stroke="#c0c0c0" points="470.5,-38.5 398.5,-38.5 398.5,-2.5 470.5,-2.5 470.5,-38.5"/>
<text text-anchor="start" x="409.5" y="-23.3" font-family="Arial" font-weight="bold" font-size="9.00" fill="#666666">Component</text>
<text text-anchor="start" x="414" y="-14.3" font-family="Arial" font-size="9.00" fill="#666666">state&#45;here</text>
</g>
<!-- ProfileForm&#45;&gt;Component -->
<!-- LoadingSpinner -->
<g id="node22" class="node">
<title>LoadingSpinner</title>
<polygon fill="none" stroke="#000000" points="675,-359.5 596,-359.5 596,-323.5 675,-323.5 675,-359.5"/>
<text text-anchor="start" x="601" y="-340.3" font-family="Arial" font-weight="bold" font-size="9.00" fill="#000000">LoadingSpinner</text>
</g>
<!-- Child -->
<g id="node24" class="node">
<title>Child</title>
<polygon fill="none" stroke="#c0c0c0" points="671.5,-38.5 599.5,-38.5 599.5,-2.5 671.5,-2.5 671.5,-38.5"/>
<text text-anchor="start" x="624" y="-23.3" font-family="Arial" font-weight="bold" font-size="9.00" fill="#666666">Child</text>
<text text-anchor="start" x="616" y="-14.3" font-family="Arial" font-size="9.00" fill="#7f7f7f">(no state)</text>
</g>
<!-- Component&#45;&gt;Child -->
<g id="edge23" class="edge">
<title>Component&#45;&gt;Child</title>
<path fill="none" stroke="#c0c0c0" d="M470.8996,-20.5C505.0508,-20.5 556.1506,-20.5 592.3413,-20.5"/>
<polygon fill="#c0c0c0" stroke="#c0c0c0" points="592.3712,-22.9501 599.3712,-20.5 592.3712,-18.0501 592.3712,-22.9501"/>
<text text-anchor="start" x="515.5" y="-68.5" font-family="Arial" font-weight="bold" font-size="10.00" fill="#666666">Legend:</text>
<text text-anchor="start" x="511" y="-53" font-family="Arial" font-weight="bold" font-size="7.50" fill="#b22222">/private&#45;route</text>
<text text-anchor="start" x="512" y="-45.5" font-family="Arial" font-weight="bold" font-size="7.50" fill="#000080">/public&#45;route</text>
<text text-anchor="start" x="514" y="-38" font-family="Arial" font-style="italic" font-size="7.50" fill="#666666">passed&#45;prop</text>
<text text-anchor="start" x="503" y="-30.5" font-family="Arial" font-style="italic" font-size="7.50" fill="#666666">passed&#45;func&#45;prop()</text>
<text text-anchor="start" x="533.5" y="-23" font-family="Arial" font-style="italic" font-size="7.50" fill="#666666"> </text>
</g>
</g>
</svg>
